<?xml version="1.0" encoding="utf-8"?>
<?xml-stylesheet type="text/xsl" href="rss1.xsl"?>
<rss version="2.0" xmlns:atom="http://www.w3.org/2005/Atom" xmlns:content="http://purl.org/rss/1.0/modules/content/" xmlns:dc="http://purl.org/dc/elements/1.1/" xmlns:media="http://search.yahoo.com/mrss/">
<channel>
 <title>Getty</title>
 <link>http://www.gettyimg.com/</link>
 <atom:link href="http://www.gettyimg.com/" rel="self" type="application/rss+xml" />

 
                <item>
                <title><![CDATA[【UPSCALED】Ava Max - Sweet but Psycho [4K.AI.UPSCALE.x265.10bit.Dolby-Atmos]]]></title>
                <link><![CDATA[https://sharemania.us/threads/ava-max-sweet-but-psycho-4k-ai-upscale-x265-10bit-dolby-atmos.228482/]]></link>
                <description><![CDATA[<article>
<blockquote class="messageText SelectQuoteContainer ugc baseHtml">
<img src="https://i.imgur.com/hhiTbBn.png" class="bbCodeImage LbImage" alt="[​IMG]" data-url="https://i.imgur.com/hhiTbBn.png" style=""><br>
<img src="https://i.imgur.com/uiBJOls.png" class="bbCodeImage LbImage" alt="[​IMG]" data-url="https://i.imgur.com/uiBJOls.png" style=""><br>
<img src="https://i.imgur.com/Oq4M4YP.jpg" class="bbCodeImage LbImage" alt="[​IMG]" data-url="https://i.imgur.com/Oq4M4YP.jpg" style=""><br>
<br>
<div class="bbCodeBlock bbCodeCode">
<div class="type">Code:</div>
<pre>General
Format                                   : MPEG-4
Format profile                           : Base Media / Version 2
Codec ID                                 : mp42 (mp42/iso2/mp41)
File size                                : 766 MiB
Duration                                 : 3 min 27 s
Overall bit rate                         : 31.0 Mb/s
Frame rate                               : 23.976 FPS

Video
ID                                       : 1
Format                                   : HEVC
Format/Info                              : High Efficiency Video Coding
Format profile                           : Main 10@L5@Main
Codec ID                                 : hvc1
Codec ID/Info                            : High Efficiency Video Coding
Duration                                 : 3 min 27 s
Bit rate                                 : 30.1 Mb/s
Width                                    : 3 840 pixels
Height                                   : 1 600 pixels
Display aspect ratio                     : 2.40:1
Frame rate mode                          : Variable
Frame rate                               : 23.976 (24000/1001) FPS
Minimum frame rate                       : 23.974 FPS
Maximum frame rate                       : 23.981 FPS
Color space                              : YUV
Chroma subsampling                       : 4:2:0 (Type 0)
Bit depth                                : 10 bits
Bits/(Pixel*Frame)                       : 0.204
Stream size                              : 743 MiB (97%)
Color range                              : Limited
Color primaries                          : BT.709
Transfer characteristics                 : BT.709
Matrix coefficients                      : BT.709
Codec configuration box                  : hvcC

Audio
ID                                       : 2
Format                                   : AAC LC
Format/Info                              : Advanced Audio Codec Low Complexity
Codec ID                                 : mp4a-40-2
Duration                                 : 3 min 27 s
Source duration                          : 3 min 27 s
Bit rate mode                            : Constant
Bit rate                                 : 944 kb/s
Channel(s)                               : 6 channels
Channel layout                           : C L R Ls Rs LFE
Sampling rate                            : 48.0 kHz
Frame rate                               : 46.875 FPS (1024 SPF)
Compression mode                         : Lossy
Stream size                              : 23.3 MiB (3%)
Source stream size                       : 23.3 MiB (3%)
Title                                    : Surround / Surround
Default                                  : Yes</pre>
</div><div style="text-align: center">
<div class="bbCodeBlock bbCodeVfcHH HiddenContent">
<div class="attribution type">Hidden Content:</div>
<blockquote>You must reply before you can see the hidden data contained here.</blockquote>
</div></div>
<div class="messageTextEndMarker">&nbsp;</div>
</blockquote>
</article>]]></description>
                <author><![CDATA[Librious]]></author>
                </item>

                
                <item>
                <title><![CDATA[【PRORES HD】Omar Apollo - Kickback |ProRes 1080|]]></title>
                <link><![CDATA[https://sharemania.us/threads/omar-apollo-kickback-prores-1080.228481/]]></link>
                <description><![CDATA[<article>
<blockquote class="messageText SelectQuoteContainer ugc baseHtml">
<div style="text-align: center"><img src="https://i.imgur.com/ddDauCS.gif" class="bbCodeImage LbImage" alt="[​IMG]" data-url="https://i.imgur.com/ddDauCS.gif" style=""><br>
<br>
​</div>
<div class="ToggleTriggerAnchor bbCodeSpoilerContainer">
<button type="button" class="button bbCodeSpoilerButton ToggleTrigger Tooltip JsOnly" data-target="> .SpoilerTarget"><span>Spoiler: <span class="SpoilerTitle">ProRes</span></span></button>
<div class="SpoilerTarget bbCodeSpoilerText">
<div class="bbCodeBlock bbCodeCode">
<div class="type">Code:</div>
<pre>Format                                   : MPEG-4
Format profile                           : QuickTime
Codec ID                                 : qt   2005.03 (qt  )
File size                                : 3.78 GiB
Duration                                 : 2 min 56 s
Overall bit rate mode                    : Variable
Overall bit rate                         : 184 Mb/s
Encoded date                             : UTC 2019-09-13 18:46:16
Tagged date                              : UTC 2019-09-13 18:51:36
Writing library                          : Apple QuickTime
TIM                                      : 01:00:00:00
TSC                                      : 24
TSZ                                      : 1

Video
ID                                       : 1
Format                                   : ProRes
Format version                           : Version 0
Format profile                           : 422 HQ
Codec ID                                 : apch
Duration                                 : 2 min 56 s
Bit rate mode                            : Variable
Bit rate                                 : 182 Mb/s
Width                                    : 1 920 pixels
Height                                   : 1 080 pixels
Display aspect ratio                     : 16:9
Frame rate mode                          : Constant
Frame rate                               : 24.000 FPS
Color space                              : YUV
Chroma subsampling                       : 4:2:2
Scan type                                : Progressive
Bits/(Pixel*Frame)                       : 3.651
Stream size                              : 3.73 GiB (99%)
Writing library                          : Apple
Language                                 : English
Encoded date                             : UTC 2019-09-13 18:46:16
Tagged date                              : UTC 2019-09-13 18:46:16
Color primaries                          : BT.709
Transfer characteristics                 : BT.709
Matrix coefficients                      : BT.709

Audio
ID                                       : 2
Format                                   : PCM
Format settings                          : Little / Signed
Codec ID                                 : in24
Duration                                 : 2 min 56 s
Bit rate mode                            : Constant
Bit rate                                 : 2 304 kb/s
Channel(s)                               : 2 channels
Channel layout                           : L R
Sampling rate                            : 48.0 kHz
Bit depth                                : 24 bits
Stream size                              : 48.5 MiB (1%)
Language                                 : English
Encoded date                             : UTC 2019-09-13 18:46:16
Tagged date                              : UTC 2019-09-13 18:46:16

Other
ID                                       : 3
Type                                     : Time code
Format                                   : QuickTime TC
Duration                                 : 2 min 56 s
Frame rate                               : 24.000 FPS
Time code of first frame                 : 01:00:00:00
Time code, striped                       : Yes
Language                                 : English
Encoded date                             : UTC 2019-09-13 18:46:16
Tagged date                              : UTC 2019-09-13 18:46:16</pre>
</div><div style="text-align: center">​</div></div>
</div><div style="text-align: center"><br>
<br>
<div class="bbCodeBlock bbCodeVfcHH HiddenContent">
<div class="attribution type">Hidden Content:</div>
<blockquote>You must reply before you can see the hidden data contained here.</blockquote>
</div></div>
<div class="messageTextEndMarker">&nbsp;</div>
</blockquote>
</article>]]></description>
                <author><![CDATA[fstambuk]]></author>
                </item>

                
                <item>
                <title><![CDATA[【Live Audios (lossless)】FLAC - Olivia Rodrigo feat. Billy Joel - deja vu &amp; Uptown Girl (Audience recording)]]></title>
                <link><![CDATA[https://sharemania.us/threads/olivia-rodrigo-feat-billy-joel-deja-vu-uptown-girl-audience-recording.228480/]]></link>
                <description><![CDATA[<article>
<blockquote class="messageText SelectQuoteContainer ugc baseHtml">
I hope you like it guys, someone could me a cool cover art for these tracks? ❤️<br>
<div class="bbCodeBlock bbCodeVfcHH HiddenContent">
<div class="attribution type">Hidden Content:</div>
<blockquote>You must either reply or click 'Like' to see the hidden information contained here.</blockquote>
</div>
<div class="messageTextEndMarker">&nbsp;</div>
</blockquote>
</article>]]></description>
                <author><![CDATA[gianfranco23]]></author>
                </item>

                </channel></rss>